<svg width="180" height="36" viewBox="0 0 180 36" fill="none" xmlns="http://www.w3.org/2000/svg">
<path d="M0 35.561V0.439025H7.1122C11.6341 0.439025 13.1707 3.20488 13.1707 8.51707C13.1707 13.3024 12.6 16.0244 11.239 17.3415V17.6049C12.3805 18 12.7317 20.0634 13.1707 25.2L14.0488 35.561H9.65854L9.08781 25.2C8.78049 19.9756 7.99024 18.878 6.67317 18.878H4.39024V35.561H0ZM4.39024 15.3659H7.1122C8.64878 15.3659 9.08781 13.8293 9.08781 8.51707C9.08781 5.04878 8.42927 3.95122 7.1122 3.95122H4.39024V15.3659ZM17.561 35.561V0.439025H27.6585V3.95122H21.9512V15.3659H26.7805V18.878H21.9512V31.1707H27.6585V35.561H17.561ZM29.8537 24.8488H34.2878C34.3756 30.5122 34.8146 31.6098 36.3951 31.6098C38.5463 31.6098 38.5463 29.8098 38.5463 25.0244C38.5463 18 29.8537 19.8878 29.8537 10.5366C29.8537 5.04878 29.8537 0 36.439 0C41.3122 0 42.6293 2.76585 42.9366 9.39512H38.5463C38.3707 4.60976 37.8439 3.5122 36.439 3.5122C34.2878 3.5122 34.2878 5.88293 34.2878 10.5366C34.2878 17.3415 43.0244 14.9268 43.0244 25.0244C43.0244 31.1707 43.0244 36 36.3951 36C31.3024 36 30.1171 32.9707 29.8537 24.8488ZM46.5366 35.561V0.439025H50.9268V35.561H46.5366ZM55.3171 35.561V0.439025H61.9025C68.4878 0.439025 68.4878 5.26829 68.4878 17.0781C68.4878 30.6878 68.4878 35.561 61.9025 35.561H55.3171ZM59.7073 31.1707H61.9025C64.361 31.1707 64.361 29.3268 64.361 17.0781C64.361 6.10244 64.361 3.95122 61.9025 3.95122H59.7073V31.1707ZM72.439 35.561V0.439025H82.5366V3.95122H76.8293V15.3659H81.6585V18.878H76.8293V31.1707H82.5366V35.561H72.439ZM85.6098 35.561V0.439025H89.561L95.3122 21.9512L95.2683 21.5122V0.439025H99.6586V35.561H95.7073L89.9561 16.2439L90 16.6829V35.561H85.6098ZM102.293 4.39024V0.439025H115.463V4.39024H111.073V35.561H106.683V4.39024H102.293Z" fill="url(#paint0_linear)"/>
<path d="M130 36V0H140.35V3.6H134.5V15.3H139.45V18.9H134.5V31.5H140.35V36H130ZM142.15 0H146.875L149.575 26.55H150.025L152.725 0H157.45L152.5 36H147.1L142.15 0ZM160.6 36V0H165.1V36H160.6ZM169.6 36V0H174.1V31.5H179.95V36H169.6Z" fill="url(#paint1_linear)"/>
<defs>
<linearGradient id="paint0_linear" x1="0" y1="0" x2="115.463" y2="0" gradientUnits="userSpaceOnUse">
<stop offset="0.25" stop-color="#FF4C29"/>
<stop offset="0.994792" stop-color="#FF4C29" stop-opacity="0.31"/>
</linearGradient>
<linearGradient id="paint1_linear" x1="130" y1="0" x2="179.95" y2="0" gradientUnits="userSpaceOnUse">
<stop offset="0.0104167" stop-color="#FF4C29" stop-opacity="0.31"/>
<stop offset="1" stop-color="#FF4C29"/>
</linearGradient>
</defs>
</svg>
